<svg width="582" height="582" viewBox="0 0 582 582" fill="none" xmlns="http://www.w3.org/2000/svg">
<circle cx="291" cy="291" r="291" fill="#090909"/>
<path d="M190.134 275.956L190.086 276.051L190.046 276.15C155.15 363.087 144 419.536 139.502 523.892L144.47 524.388C152.621 472.534 157.442 444.131 168.304 398.833C182.449 348.737 192.194 322.606 213.302 279.745L213.308 279.732L213.314 279.719C231.143 242.437 243.441 223.441 268.513 191.903C293.694 164.917 311.432 148.87 327.276 137.75C330.368 135.58 333.391 133.595 336.388 131.751C327.892 138.113 319.355 145.419 309.035 155.185L309.031 155.188C285.728 177.325 273.944 191.398 254.714 218.452L254.668 218.517L254.626 218.585C229.902 258.538 218.715 282.879 200.947 327.622L200.912 327.708L200.885 327.797C184.306 380.688 179.293 411.571 174.816 467.66L174.054 477.207L179.385 469.25C191.2 451.616 202.065 438.57 215.93 426.638C229.819 414.686 246.8 403.782 270.936 390.516C295.592 376.985 313.548 365.324 328.441 351.409C343.356 337.474 355.095 321.376 367.459 299.087L371.073 292.573L364.261 295.589C337.881 307.267 320.835 312.791 295.981 315.428C328.844 301.588 348.994 289.47 377.777 265.487L377.858 265.419L377.934 265.345C408.914 234.751 422.567 215.224 439.227 176.176L441.842 170.049L435.842 172.943C423.355 178.967 413.055 182.722 401.683 184.952C395.866 186.093 389.742 186.841 382.868 187.28C396.924 183.372 408.075 179.275 417.317 174.28C430.981 166.895 440.381 157.601 448.898 144.315L448.982 144.184L449.049 144.043C461.103 118.808 466.346 96.0255 465.39 38.9581L465.329 35.3462L461.97 36.6754C399.891 61.2406 368.391 76.4047 340.461 96.2215L340.436 96.2389L340.412 96.2568C304.073 123.372 277.406 146.616 254.356 173.965C231.308 201.313 211.952 232.676 190.134 275.956Z" fill="#D9D9D9" stroke="#090909" stroke-width="5"/>
<path d="M139.514 562.738C139.382 563.983 140.193 565.134 141.41 565.429C142.627 565.725 143.875 565.074 144.33 563.907C148.61 552.91 152.703 545.47 158.08 539.422C163.462 533.369 170.265 528.557 180.216 523.018C180.825 522.679 181.265 522.101 181.429 521.424C181.594 520.747 181.468 520.031 181.083 519.451C176.983 513.274 174.415 508.486 172.894 503.522C171.377 498.574 170.851 493.291 171.063 486.073C171.088 485.222 170.678 484.417 169.975 483.936C169.273 483.456 168.374 483.366 167.59 483.698C164.076 485.185 161.831 485.8 160.032 485.812C158.367 485.823 156.844 485.316 154.781 483.926C154.084 483.457 153.198 483.369 152.423 483.692C151.647 484.016 151.086 484.707 150.929 485.532C144.911 517.131 142.553 533.926 139.514 562.738Z" fill="#D9D9D9" stroke="#090909" stroke-width="5" stroke-linejoin="round"/>
</svg>
